<svg width="859" height="555" viewBox="0 0 859 555" fill="none" xmlns="http://www.w3.org/2000/svg">
<path opacity="0.2" d="M151.4 0.0700087C143.34 -0.159991 135.08 0.0700009 127.52 2.39C106.95 8.71 97.2 29.39 100.37 47.26C103.54 65.13 116.58 80.7 130.11 94.93C143.64 109.16 158.3 123.23 165.72 140.24C169.42 148.73 171.15 158.24 167.39 166.72C161.59 179.79 144.1 187.09 127.31 188.61C110.52 190.13 93.66 187.17 76.81 186.18C69.74 185.77 62.47 185.72 55.81 187.63C48.5 189.71 42.41 193.96 36.81 198.39C14.96 215.77 -2.52999 239.48 0.300007 264.39C3.50001 292.62 32.04 314.93 63.3 326.9C73.65 330.9 84.6 334.08 93.71 339.74C117.71 354.67 123.1 382.67 120.71 407.38C118.32 432.09 110.18 456.83 114.71 481.32C120.04 509.81 143.63 535.55 175.45 547.57C203.8 558.28 239.28 557.57 264.45 542.46C276.72 535.08 286 524.83 294.07 514.23C306.053 498.576 315.952 481.433 323.52 463.23C327.03 454.74 330.33 445.61 338.52 439.71C343.52 436.08 350 434.05 356.41 432.47C375.73 427.71 396.08 426.41 415.58 422.17C435.08 417.93 454.7 410 465.3 395.9C480.3 375.9 473.3 350.28 473.37 326.76C473.49 273.1 512.48 225.07 526.87 172.76C531.57 155.67 533.32 136.76 522.82 121.51C515.69 111.16 503.66 103.69 491.02 97.92C463.21 85.23 431.6 79.58 400.51 74.08C357.3 66.44 304.83 65.45 271.34 40.73C239.2 17 195.23 0.0700087 151.4 0.0700087Z" fill="#6C63FF"/>
<path d="M834.97 100.42H353.37C340.524 100.42 330.11 110.834 330.11 123.68V405.15C330.11 417.996 340.524 428.41 353.37 428.41H834.97C847.816 428.41 858.23 417.996 858.23 405.15V123.68C858.23 110.834 847.816 100.42 834.97 100.42Z" fill="#535461"/>
<path d="M845.99 148.23H341.22V416.18H845.99V148.23Z" fill="white"/>
<path d="M593.61 129.33C596.068 129.33 598.06 127.338 598.06 124.88C598.06 122.422 596.068 120.43 593.61 120.43C591.152 120.43 589.16 122.422 589.16 124.88C589.16 127.338 591.152 129.33 593.61 129.33Z" fill="white"/>
<path d="M498.41 157.65H285.48C280.307 157.645 275.344 159.694 271.682 163.347C268.02 167 265.958 171.957 265.95 177.13V472.13C265.958 477.303 268.02 482.26 271.682 485.913C275.344 489.566 280.307 491.615 285.48 491.61H498.41C503.583 491.615 508.546 489.566 512.208 485.913C515.87 482.26 517.932 477.303 517.94 472.13V177.13C517.932 171.957 515.87 167 512.208 163.347C508.546 159.694 503.583 157.645 498.41 157.65Z" fill="url(#paint0_linear)"/>
<path d="M494.94 161.65H288.94C277.894 161.65 268.94 170.604 268.94 181.65V468.65C268.94 479.696 277.894 488.65 288.94 488.65H494.94C505.986 488.65 514.94 479.696 514.94 468.65V181.65C514.94 170.604 505.986 161.65 494.94 161.65Z" fill="#535461"/>
<path d="M502.44 192.58H281.44V457.72H502.44V192.58Z" fill="white"/>
<path d="M390.94 179.65C392.597 179.65 393.94 178.307 393.94 176.65C393.94 174.993 392.597 173.65 390.94 173.65C389.283 173.65 387.94 174.993 387.94 176.65C387.94 178.307 389.283 179.65 390.94 179.65Z" fill="white"/>
<path d="M390.94 481.65C395.911 481.65 399.94 477.621 399.94 472.65C399.94 467.679 395.911 463.65 390.94 463.65C385.969 463.65 381.94 467.679 381.94 472.65C381.94 477.621 385.969 481.65 390.94 481.65Z" fill="white"/>
<path d="M336.11 257.65H226.78C225.36 257.647 223.954 257.924 222.642 258.465C221.329 259.006 220.136 259.8 219.13 260.802C218.125 261.804 217.326 262.994 216.781 264.305C216.235 265.615 215.953 267.02 215.95 268.44V507.86C215.953 509.28 216.235 510.685 216.781 511.995C217.326 513.306 218.125 514.496 219.13 515.498C220.136 516.5 221.329 517.294 222.642 517.835C223.954 518.376 225.36 518.653 226.78 518.65H336.11C337.53 518.653 338.936 518.376 340.248 517.835C341.561 517.294 342.754 516.5 343.76 515.498C344.765 514.496 345.564 513.306 346.109 511.995C346.655 510.685 346.937 509.28 346.94 507.86V268.44C346.937 267.02 346.655 265.615 346.109 264.305C345.564 262.994 344.765 261.804 343.76 260.802C342.754 259.8 341.561 259.006 340.248 258.465C338.936 257.924 337.53 257.647 336.11 257.65V257.65Z" fill="url(#paint1_linear)"/>
<path d="M334.94 259.65H227.94C221.865 259.65 216.94 264.575 216.94 270.65V506.65C216.94 512.725 221.865 517.65 227.94 517.65H334.94C341.015 517.65 345.94 512.725 345.94 506.65V270.65C345.94 264.575 341.015 259.65 334.94 259.65Z" fill="#535461"/>
<path d="M336.44 283.65H226.44V493.65H336.44V283.65Z" fill="white"/>
<path d="M268.44 272.65C268.992 272.65 269.44 272.202 269.44 271.65C269.44 271.098 268.992 270.65 268.44 270.65C267.888 270.65 267.44 271.098 267.44 271.65C267.44 272.202 267.888 272.65 268.44 272.65Z" fill="white"/>
<path d="M294.44 270.65H274.44C273.888 270.65 273.44 271.098 273.44 271.65C273.44 272.202 273.888 272.65 274.44 272.65H294.44C294.992 272.65 295.44 272.202 295.44 271.65C295.44 271.098 294.992 270.65 294.44 270.65Z" fill="white"/>
<path d="M280.94 510.65C284.806 510.65 287.94 507.516 287.94 503.65C287.94 499.784 284.806 496.65 280.94 496.65C277.074 496.65 273.94 499.784 273.94 503.65C273.94 507.516 277.074 510.65 280.94 510.65Z" fill="white"/>
<defs>
<linearGradient id="paint0_linear" x1="119694" y1="212439" x2="119694" y2="100897" gradientUnits="userSpaceOnUse">
<stop stop-color="#808080" stop-opacity="0.25"/>
<stop offset="0.54" stop-color="#808080" stop-opacity="0.12"/>
<stop offset="1" stop-color="#808080" stop-opacity="0.1"/>
</linearGradient>
<linearGradient id="paint1_linear" x1="47823" y1="173209" x2="47823" y2="105088" gradientUnits="userSpaceOnUse">
<stop stop-color="#808080" stop-opacity="0.25"/>
<stop offset="0.54" stop-color="#808080" stop-opacity="0.12"/>
<stop offset="1" stop-color="#808080" stop-opacity="0.1"/>
</linearGradient>
</defs>
</svg>
